<svg xmlns="http://www.w3.org/2000/svg" width="12" height="12">
  <path id="Layer" d="M11.12 2c.08.08.12.18.12.29 0 .11-.04.21-.12.28L8 5.71c-.08.08-.12.18-.12.29 0 .11.04.21.12.29l3.14 3.14c.08.08.12.18.12.29 0 .11-.04.21-.12.29L10 11.15c-.16.15-.41.15-.57 0L6.27 8.02c-.16-.15-.41-.15-.57 0l-3.14 3.12c-.16.15-.41.15-.57 0L.85 10.02c-.08-.08-.12-.18-.12-.29 0-.11.04-.21.12-.29L4 6.29c.08-.08.12-.18.12-.29 0-.11-.04-.21-.12-.29L.85 2.57c-.08-.08-.12-.18-.12-.28 0-.11.04-.21.12-.29L2 .86c.16-.15.41-.15.57 0L5.7 4c.08.08.18.12.29.12.11 0 .21-.04.29-.12L9.42.87c.16-.15.41-.15.57 0z"/>
</svg>
