<svg xmlns="http://www.w3.org/2000/svg" width="370" height="153">
  <style>
    .shp0{fill:#fff}.shp1{fill:#636466}
  </style>
  <path id="Layer" d="M111.18 28.75c-12.45 0-14.64-13.73-7.18-18.48l1.34 1.79c-3.45 2.22-4.17 7.28-1.71 10.67.51-.63.97-1.29 1.37-2l9.63-16.56c1.6-2.8 3.93-4.17 5.88-4.17 7.08 0 6.49 9-.65 11.43 6.84 4.57 1.92 17.31-8.68 17.32zm3.54-16.78l-1-.1-6 10.37c-.52.89-1.12 1.74-1.78 2.53 1.57.85 3.34 1.28 5.13 1.23 8.62 0 11.93-12.28 3.65-14.03zm7.19-5.61c1.78-3.35-1.54-5.98-4.14-1.5l-2.87 4.93c3.62-.07 5.64-.86 7.01-3.43z" class="shp0"/>
  <path id="Layer" d="M260.63 20.15c-2.91 3.39-6.29 6.47-11.46 6.57h-.21c-1.81.07-3.43-1.12-3.9-2.87l2-1c.2.54.71.89 1.28.89.57 0 1.09-.36 1.28-.89l5.37-9.31c.93-1.61-1.54-3.6-5.54 1.81l-10.64 18.51h-3.59l6.48-11.24c-1.19.57-2.49.89-3.81.94h-.79c-3.86 4.87-10.15 3.99-10.15-.55-2.2 2.11-4.48 3.67-6.55 3.67-2.87 0-3.94-2.43-2.43-5.06l4.62-8c1.54-2.65-.88-3.53-6.36 3.35l-5.4 9.41h-3.59l1.22-2.12c-1.61 1.21-3.48 2.02-5.47 2.36h-.1c-.33.04-.67.06-1 .07-1.81.07-3.43-1.12-3.9-2.87l2.17-1.16c.26.72.92 1.22 1.68 1.3 3.35 0 2.6-6.63 4-10.33-1.26 1.68-3.06 4.17-5.06 6.5-2.94 3.42-6.4 6.57-9.27 6.57-2.87 0-3.94-2.42-2.43-5.06l3.76-6.53c.36-.64.27-1.44-.21-2l-.48-.58c-2.88 3.87-4.17 5.63-5.88 7.63-3 3.42-7 6.57-11 6.57-3.14 0-5.01-1.95-4.82-4.52-1.44.84-3.06 1.32-4.72 1.4-.26.02-.53.02-.79 0-1.39 1.96-3.6 3.17-6 3.3-2.3 0-4.11-1.37-4.11-3.8-2.2 2.1-4.48 3.65-6.54 3.65-2.87 0-3.93-2.42-2.43-5.06l3.76-6.53c.36-.64.27-1.44-.21-2l-.48-.58c-2.88 3.87-4.17 5.63-5.88 7.63-2.94 3.42-6.33 6.57-9.27 6.57-1.81 0-2.91-.96-3.08-2.33-1.71 1.41-3.49 2.33-4.93 2.33-2.87 0-3.94-2.42-2.43-5.06l5-8.62c1.51-2.6 4.17-4.11 6.09-4.11 1.97-.04 3.63 1.48 3.76 3.45h2l-5.75 10.06c-.82 1.45-.38 2 .41 2 1.58 0 4.07-2.34 6.64-5.34l.24-.27c2.3-2.77 4.43-5.78 6-8l-.31-.41c-1.27-1.64-1.08-3.66.92-5.47l1.85 2-.11.09c-.28.25-.46.6-.48.98-.02.38.12.75.38 1.02l2 2.39c1.16 1.4 1.74 2.66.51 4.82l-3.56 6.23c-.82 1.45-.38 2 .41 2 1.58 0 4.07-2.34 6.64-5.34l.19-.21 9.97-17.22h3.63l-4.52 7.83c.68-.49 1.49-.77 2.33-.79h.41c.79.05 1.54.41 2.06 1.01.53.6.8 1.38.75 2.17-.1 1.45-.56 2.86-1.34 4.09l-3.35 5.78c2.07-.1 4.02-1.06 5.37-2.63l.21-.24 3.47-5.97c1.28-2.51 3.85-4.1 6.67-4.11 2.91 0 4.76 2.47 2.84 5.75l-.51.89c-2.67 4.61-6.98 5.1-9.27 4.1l-.34.62c-1.64 2.87-.34 4.24 1.85 4.24 2.5 0 5.78-2.34 8.35-5.34l.24-.27c2.31-2.77 4.43-5.78 6-8l-.3-.41c-1.27-1.64-1.08-3.66.92-5.47l1.85 2-.11.09c-.28.25-.45.6-.47.98-.02.38.12.75.38 1.02l2 2.39c1.16 1.4 1.74 2.66.51 4.82l-3.56 6.23c-.82 1.45-.38 2 .41 2 1.58 0 4.07-2.34 6.64-5.34l.24-.27c3.21-3.76 6.43-8.43 7.9-10.43l2.67 1.44c-2.19 4.55-1.95 9.75-3.08 13.14 1.58-1.1 3.01-2.4 4.25-3.87l.2-.23 9.87-17.28h3.56l-5.68 9.89c1.82-1.85 3.46-2.7 5-2.7 1.99 0 3.46 1.95 1.92 4.65l-5.13 9c-.82 1.45-.38 2 .41 2 1.58 0 4.07-2.34 6.64-5.34l.19-.22 1.46-2.48 1.75-3c2.05-3.56 4.17-4.65 6.91-4.65 3.35 0 5.34 3.52 3.18 7.25l-3.35 5.78c2.07-.11 4.01-1.06 5.37-2.63l.24-.27 5.56-9.65h3.56l-.72 1.23c3.63-3.25 9-1.36 5.68 4.28l-3.93 6.74c-.47.75-.89 1.75-1.47 2.67 2.55-1.1 4.78-2.82 6.5-5l.24-.27c.61.17 1.13.58 1.42 1.15zM175.92 18c1.34.48 3.63.55 5.34-2.36l.51-.89c2.12-3.69-1.51-4.27-3.56-.75zm-40.48-3.3c1.71-3.21-2.08-4.07-4-.75l-5 8.66c-.82 1.45-.38 2 .41 2 1.47 0 3.59-1.61 5.75-5zm23.94 9.73c1.14-.08 2.16-.74 2.7-1.74-1.25-.85-2.07-2.19-2.26-3.69l-1.25 2.25c-.36.56-.57 1.19-.62 1.85-.01.38.14.75.41 1.01.28.26.65.39 1.03.36zm7.35-9.66c.41-.64.64-1.37.68-2.12.05-.39-.07-.78-.32-1.07-.26-.29-.63-.46-1.02-.47-2.02 0-4.48 4.14-4.48 6.67-.05 1.26.51 2.46 1.51 3.22zm72.03-.02c2.16-3.7-1.26-5.37-3.76-1.13l-1.68 2.92-2.7 4.69c-2.12 3.7 1.95 4.24 3.63 1.37v-.07c-.22-.36-.34-.78-.34-1.2 0-.56.22-1.09.61-1.49.39-.4.93-.62 1.48-.62h.18zM0 73.26l5.71-5.71 5.71 5.72-5.71 5.71zm352.02.02l5.71-5.71 5.71 5.72-5.71 5.71z" class="shp0"/>
  <path id="Layer" d="M46.8 73.48h2.08v-8.32h3.27v-2.09H46.8zM61.69 75V62.32c-.01-1.73-1-3.31-2.56-4.07.31.62.48 1.31.48 2v12.68c.01 1.36-.6 2.65-1.66 3.51 1.03.96 1.63 2.29 1.66 3.69v14.1c-.04 2.52-2.09 4.55-4.61 4.56H41.49v2.08h15.64c2.5-.04 4.52-2.06 4.56-4.56v-14.1c-.04-1.41-.65-2.74-1.69-3.69 1.07-.85 1.7-2.15 1.69-3.52z" class="shp1"/>
  <path id="Layer" d="M46.8 91.34h2.08v-8.39h3.27v-2.08H46.8zm33.01 0h2.08V65.16h3.27v-2.09h-5.35z" class="shp1"/>
  <path id="Layer" d="M94.71 62.33v34c-.04 2.5-2.06 4.52-4.56 4.56H79.07c-1.73-.01-3.31-1-4.07-2.56.62.31 1.31.48 2 .48h11.06c2.5-.04 4.52-2.06 4.56-4.56v-34c0-.69-.17-1.38-.48-2 1.56.76 2.56 2.34 2.57 4.08zm18.11.74h5.36v2.09h-3.28v8.32h-2.08zm15.32 37.8h-7.39l-.35-2.08h5.68L123 80.44c1.58-.74 2.58-2.33 2.57-4.07V60.22c-.01-.69-.17-1.38-.48-2 1.57.76 2.57 2.35 2.57 4.1v16.14c0 1.74-1.01 3.33-2.59 4.06zM116 82.95h-1.1v17.93h-7.39v-2.09h5.31V80.87h2.83zm28.84-19.88h5.36v2.09h-3.27v26.18h-2.09z" class="shp1"/>
  <path id="Layer" d="M159.72 62.33v34c-.04 2.5-2.06 4.52-4.56 4.56h-11.09c-1.73-.01-3.31-1-4.07-2.56.62.31 1.31.48 2 .48h11.1c2.5-.04 4.52-2.06 4.56-4.56v-34c0-.7-.17-1.38-.48-2 1.55.77 2.53 2.35 2.54 4.08zm18.13.74h5.36v2.09h-3.27v26.18h-2.09z" class="shp1"/>
  <path id="Layer" d="M192.75 62.33v34c-.04 2.5-2.06 4.52-4.56 4.56h-15.64v-2.08h13.56c2.5-.04 4.52-2.06 4.56-4.56v-34c0-.69-.17-1.38-.48-2 1.56.76 2.55 2.34 2.56 4.08zm20.57-4.56v43.11h-7.39v-2.09h5.31V57.77zm32.89 0v43.11h-7.4l-.59-2.09h5.9V57.77zM233.4 87.19v13.69h-7.39v-2.09h5.3V79.95zm26.1-6.8c.62.31 1.31.48 2 .48h8.19V83h-6.11c-1.75-.01-3.34-1.02-4.08-2.61zm6.91 10.95h-2.09v-5.13l2.09-.48zm12.81-29.02v8.75l-7.45 1.73v-2.56l5.37-1.24v-8.75c0-.69-.17-1.38-.48-2 1.56.76 2.55 2.34 2.56 4.07z" class="shp1"/>
  <path id="Layer" d="M279.2 80.12v16.21c-.04 2.5-2.06 4.52-4.56 4.56h-11.08c-1.73-.01-3.31-1-4.07-2.56.62.31 1.31.48 2 .48h11.09c2.5-.04 4.52-2.06 4.56-4.56v-16.2c0-.69-.17-1.38-.48-2 1.55.77 2.53 2.34 2.54 4.07zm-9.52-17.05v2.09h-3.27v8.32h-2.09V63.07zm29.74 22.28v15.53h-7.39v-2.09h5.3V80.87h.68zm6.83-6.09l6.9 21.62h-7.45l-.06-.25-.58-1.84h6.01l-6.9-21.61 6.23-19.41h2.75zm26.36-21.49v43.11h-7.38v-2.09h5.3V57.77z" class="shp1"/>
  <path id="Layer" d="M167.9 123.85h1.41c5.43.28 9.69 1.73 12.39 4.72 2.74-3 7-4.46 12.46-4.72h1.35c12.11.82 17.63 9.5 27.3 13.19 1.5.68 3.14 1.03 4.79 1 2.48-.27 4.06-2.78 3.74-5.58-.34-3-3.28-5.61-6.56-4.17-.43.2-.83.47-1.17.8-.25.23-.53.83-1.17.61-.6-.5 0-1.23.31-1.65 1.21-2.16 3.62-3.35 6.07-3 5.63.4 10.67 5.34 9.81 12.82C236.71 149 226.53 152 214.46 153h-3.93c-10.53-.43-20.64-4.29-28.77-11-8.2 6.69-18.33 10.54-28.9 11H149c-12.16-1.07-22.44-4-24.23-15.46-.68-8.16 4.18-12.17 9.82-12.58 2.47-.35 4.9.84 6.14 3 .28.46.8 1.17.31 1.72-.61.11-.91-.37-1.17-.61-.74-.77-1.75-1.21-2.82-1.23-3.86-.14-6.08 4.15-4.54 7.61.61 1.37 1.89 2.32 3.37 2.52 1.65.01 3.28-.33 4.79-1 1.34-.52 2.64-1.15 3.87-1.9 7.35-4.26 13.1-10.31 23.36-11.22z" class="shp0"/>
  <path id="Layer" d="M361.63 82.91l5.71-5.71 2.09 2.08-5.71 5.72zm-351.96.04l5.71-5.71 2.09 2.09-5.71 5.71z" class="shp1"/>
  <path id="Layer" d="M55.65 69c0 1.35-.6 2.63-1.65 3.48 1.03.96 1.63 2.29 1.66 3.69v14.1c-.04 2.5-2.06 4.52-4.56 4.56H35.45V51.72h15.64c2.51.02 4.54 2.05 4.56 4.56zm-7.45-9.89h-5.36v10.41h5.36zm0 17.8h-5.36v10.47h5.36zm35.9-25.19c2.51.02 4.54 2.05 4.56 4.56v34c-.04 2.5-2.06 4.52-4.56 4.56H73c-2.51-.02-4.54-2.05-4.56-4.56v-34c0-1.21.48-2.37 1.33-3.23.86-.86 2.02-1.34 3.23-1.33zm-2.9 7.39h-5.35v28.27h5.36zm33.51 35.72l-3-17.92h-2.83v17.92h-7.39V51.72h15.64c1.2.01 2.35.49 3.19 1.35.84.86 1.31 2.01 1.31 3.21v16.14c-.01 1.75-1.03 3.34-2.63 4.06l3.08 18.35zm-.49-35.72h-5.36v10.41h5.36zm34.92-7.39c2.51.02 4.54 2.05 4.56 4.56v34c-.04 2.5-2.06 4.52-4.56 4.56h-11.08c-2.51-.02-4.54-2.05-4.56-4.56v-34c-.01-2.5 2-4.53 4.5-4.56zm-2.9 7.39h-5.36v28.27h5.36zm35.91-7.39c2.51.02 4.54 2.05 4.56 4.56v34c-.04 2.5-2.06 4.52-4.56 4.56h-15.64V51.72zm-2.89 7.39h-5.36v28.27h5.36zm20.63-7.39h7.39v43.11h-7.39zm40.28 0v43.11h-7.39L227.36 76v18.83H220V51.72h7.33l5.42 17.67V51.72zm28.45 17.8c2.51.02 4.54 2.05 4.56 4.56v16.2c-.04 2.5-2.06 4.52-4.56 4.56h-11.08c-2.5-.03-4.52-2.06-4.54-4.56v-8.87l7.39-1.72v7.7h5.36V76.91h-8.19c-1.21 0-2.37-.47-3.22-1.33-.86-.85-1.34-2.01-1.34-3.21V56.28c0-1.21.47-2.37 1.33-3.22.85-.86 2.01-1.34 3.21-1.34h11.1c2.51.02 4.54 2.05 4.56 4.56V65l-7.45 1.73v-7.62h-5.36v10.41zm31.6 3.7l6.9 21.62h-7.45l-.06-.25-5.54-17.67h-.68v17.91H286V51.72h7.39v17.8h.61l5.67-17.8h7.51zm18.97-21.5h7.39v43.11h-7.39z" class="shp0"/>
</svg>
