<svg xmlns="http://www.w3.org/2000/svg" width="20" height="20">
  <path id="Layer" fill="#fff" d="M20 2v16c0 1.1-.9 2-2 2H2c-1.1 0-2-.9-2-2V2C0 .9.9 0 2 0h16c1.1 0 2 .9 2 2zM6 10c0 2.21 1.79 4 4 4s4-1.79 4-4-1.79-4-4-4-4 1.79-4 4zm11.5 8c.14.01.27-.04.36-.14.1-.1.15-.23.14-.36V9h-2.1c.08.33.12.66.1 1 0 3.31-2.69 6-6 6s-6-2.69-6-6c-.02-.34.02-.67.1-1H2v8.5c-.01.14.04.27.14.36.1.1.23.15.36.14zM18 2.5c.01-.14-.04-.27-.14-.36-.1-.1-.23-.15-.36-.14h-2c-.14-.01-.27.04-.36.14-.1.1-.15.23-.14.36v2c-.01.14.04.27.14.36.1.1.23.15.36.14h2c.14.01.27-.04.36-.14.1-.1.15-.23.14-.36z"/>
</svg>
