<svg xmlns="http://www.w3.org/2000/svg" width="15" height="15">
  <path id="Layer" d="M11.25 6.57c1.03 0 1.87.84 1.88 1.87v4.68c0 1.04-.84 1.88-1.88 1.88h-7.5c-.5 0-.98-.19-1.33-.54-.35-.35-.55-.83-.55-1.33V8.44c0-1.04.84-1.88 1.88-1.88V3.75C3.75 1.68 5.43 0 7.5 0c2.07 0 3.75 1.68 3.75 3.75zm-3.26 4.54c.29-.16.47-.46.47-.79.04-.36-.13-.7-.44-.89-.3-.19-.69-.19-1 0-.3.19-.47.54-.44.89 0 .33.18.63.47.79v1.55c0 .26.21.47.47.47s.47-.21.47-.47v-1.55zm1.39-4.55V3.75c0-1.04-.84-1.87-1.87-1.87-1.04 0-1.87.84-1.87 1.87v2.81z"/>
</svg>
