<svg xmlns="http://www.w3.org/2000/svg" width="16" height="16">
  <style>
    .shp0{fill:#fff}
  </style>
  <path id="Layer" d="M7.31 9.05h-5c-.29.01-.57-.1-.78-.29-.2-.16-.33-.38-.39-.62-.08-.35.01-.72.24-1 .18-.22.44-.37.72-.42h5.24L5.76 5.14c-.28-.25-.43-.62-.39-1 .01-.25.11-.48.27-.67.17-.22.42-.37.7-.41.36-.08.73.03 1 .28l3.39 3.39c.15.16.3.31.44.48.13.17.2.37.21.58.02.21-.02.42-.12.6-.05.1-.11.19-.19.27l-1.72 1.72-1.85 1.86c-.21.22-.49.35-.79.37-.36.03-.71-.11-.95-.37-.34-.36-.41-.89-.19-1.33.06-.12.14-.23.23-.32l1.43-1.46.08-.07zm5.26-1.08V4.03c-.03-.29-.26-.53-.55-.56h-1.18c-.41.01-.79-.21-1-.56-.13-.2-.19-.43-.18-.67.01-.27.12-.53.31-.73.17-.19.4-.32.65-.37h1.32c.65 0 1.27.22 1.78.62.37.28.67.65.88 1.07.14.28.23.59.26.9v8.2c.01.5-.11.98-.35 1.42-.18.33-.42.62-.71.86-.19.17-.4.31-.62.42-.23.12-.48.2-.73.24-.21.01-.43.01-.64 0h-1c-.25 0-.49-.08-.69-.24-.25-.19-.42-.48-.46-.79-.04-.31.05-.63.25-.88.17-.21.4-.36.66-.42h1.27c.14.01.29-.03.41-.11.17-.11.26-.3.26-.5V8z" class="shp0"/>
  <path id="Layer" d="M7.31 9.06h-5c-.29.01-.57-.1-.78-.29-.2-.16-.33-.38-.39-.62-.08-.35.01-.72.24-1 .18-.23.43-.39.72-.45h5.24l-.08-.08-1.5-1.5c-.28-.25-.43-.62-.39-1 .01-.25.11-.48.27-.67.17-.22.42-.37.7-.41.36-.08.73.03 1 .28l3.39 3.38c.15.15.3.31.44.48.13.17.2.37.21.58.02.21-.02.42-.12.6-.05.1-.11.19-.19.27l-1.72 1.75-1.84 1.86c-.21.22-.49.35-.79.37-.36.03-.71-.11-.95-.37-.34-.36-.41-.89-.19-1.33.06-.12.14-.23.23-.32l1.43-1.44.08-.07z" class="shp0"/>
  <path id="Layer" d="M12.51 8V4.06c-.02-.28-.23-.52-.51-.57h-1.18c-.41.01-.79-.21-1-.56-.13-.2-.19-.43-.18-.67.02-.29.15-.56.36-.75.17-.19.4-.32.65-.37h1.32c.65 0 1.27.22 1.78.62.36.28.65.63.85 1.04.14.28.23.59.26.9v8.2c.01.5-.11.98-.35 1.42-.18.33-.42.62-.71.86-.19.17-.4.31-.62.42-.23.12-.48.2-.73.24-.21.01-.43.01-.64 0h-1c-.25 0-.49-.08-.69-.24-.49-.39-.58-1.1-.21-1.6.17-.21.4-.36.66-.42h1.27c.14.01.29-.03.41-.11.17-.11.26-.3.26-.5V8.04z" class="shp0"/>
</svg>
