<svg xmlns="http://www.w3.org/2000/svg" width="15" height="15">
  <path id="Layer" d="M13.31 11.5c-.15-.5-.45-.93-.87-1.24-.85-.5-1.75-.89-2.7-1.15-.23-.07-.44-.17-.65-.28-.16-.13-.27-.31-.29-.52-.01-.1-.01-.21 0-.31.7-1.09 1.07-2.35 1.07-3.64.1-.67-.11-1.35-.59-1.83-.47-.48-1.15-.71-1.82-.62-.68-.11-1.37.11-1.86.6S4.89 3.69 5 4.36C5.02 5.7 5.45 7 6.23 8.09v.21c-.02.21-.13.39-.29.52-.21.11-.42.21-.65.28-.95.26-1.85.64-2.7 1.13-.42.32-.72.76-.87 1.27-.16.52-.23 1.07-.22 1.61h12.03c.01-.54-.06-1.09-.22-1.61z"/>
</svg>
