<svg xmlns="http://www.w3.org/2000/svg" width="27" height="15">
  <path id="Layer" fill="#fff" d="M26 13.47l-.09-.17c-.71-1.12-1.59-2.13-2.6-3-.58-.55-.95-.93-1.1-1.12-.32-.3-.41-.78-.21-1.18.34-.63.75-1.23 1.22-1.78l.88-1.16c1.57-2.09 2.23-3.42 2-4L26 .94c-.11-.11-.25-.19-.4-.22-.29-.06-.58-.06-.87 0h-3.92c-.09-.02-.18-.02-.27 0h-.3c-.06.04-.11.09-.15.14-.06.07-.11.15-.14.24-.41 1.06-.9 2.08-1.46 3.06-.33.56-.64 1.05-.93 1.46-.21.32-.45.63-.71.91-.16.17-.34.33-.52.47-.15.12-.27.17-.35.15l-.23-.05c-.13-.08-.24-.2-.31-.33-.09-.17-.14-.34-.16-.53V1.6c.02-.21.02-.41 0-.62-.03-.15-.08-.3-.14-.44-.06-.14-.16-.25-.28-.33-.14-.08-.3-.14-.46-.18-.61-.07-1.22-.08-1.83-.03-1.09-.09-2.2.02-3.25.33-.2.1-.37.24-.52.41-.17.2-.19.31-.07.33.45.03.87.24 1.16.59l.08.16c.09.2.15.41.19.63.07.33.11.66.12 1 .05.57.05 1.13 0 1.7-.05.47-.09.84-.13 1.1-.03.22-.09.44-.18.64-.05.1-.1.2-.16.3l-.07.07c-.12.05-.24.07-.37.07-.17-.02-.33-.08-.46-.19-.21-.15-.39-.33-.56-.52-.24-.29-.47-.6-.66-.93-.25-.4-.5-.87-.76-1.42l-.22-.39c-.13-.25-.32-.62-.56-1.11-.24-.49-.45-.96-.62-1.43-.06-.18-.18-.33-.33-.44h-.07C5.06.84 4.99.78 4.91.74 4.81.7 4.71.67 4.6.65L.87.68C.59.65.31.75.1.94L0 1c-.02.07-.02.15 0 .22 0 .13.03.25.08.37.55 1.29 1.14 2.53 1.78 3.72.64 1.19 1.19 2.14 1.66 2.87S4.49 9.59 5 10.24c.51.65.85 1.06 1 1.24l.37.41.34.33c.31.29.65.55 1 .78.45.32.92.62 1.4.9.56.32 1.17.56 1.79.72.65.18 1.33.26 2 .22h1.57c.27-.01.53-.11.72-.3l.05-.07c.05-.08.08-.16.1-.25.02-.12.02-.25 0-.37-.01-.35.02-.7.09-1.05.04-.25.12-.48.23-.71.08-.15.17-.28.29-.4.07-.08.15-.14.23-.2h.11c.28-.06.56.02.77.21.31.23.59.49.83.79.26.31.57.66.93 1.05.3.32.64.62 1 .87l.27.16c.22.13.46.23.71.3.24.09.5.11.76.07l3.48-.05c.28.01.55-.04.8-.17.16-.08.28-.21.34-.37.03-.15.03-.31 0-.46-.02-.12-.05-.24-.1-.36z"/>
</svg>
